<svg xmlns="http://www.w3.org/2000/svg" xmlns:xlink="http://www.w3.org/1999/xlink" version="1.1" width="1000" height="1000" viewBox="0 0 1000 1000" xml:space="preserve">
<desc>Created with Fabric.js 3.5.0</desc>
<defs>
</defs>
<rect x="0" y="0" width="100%" height="100%" fill="#ffffff"/>
<g transform="matrix(0.625 0 0 0.625 500 492.8058)" id="932539">
<path style="stroke: none; stroke-width: 1; stroke-dasharray: none; stroke-linecap: butt; stroke-dashoffset: 0; stroke-linejoin: miter; stroke-miterlimit: 4; is-custom-font: none; font-file-url: none; fill: rgb(54,21,0); fill-rule: nonzero; opacity: 1;" vector-effect="non-scaling-stroke" transform=" translate(-720, -128)" d="M 0 96 L 48 101.3 C 96 107 192 117 288 112 C 384 107 480 85 576 96 C 672 107 768 149 864 160 C 960 171 1056 149 1152 160 C 1248 171 1344 213 1392 234.7 L 1440 256 L 1440 0 L 1392 0 C 1344 0 1248 0 1152 0 C 1056 0 960 0 864 0 C 768 0 672 0 576 0 C 480 0 384 0 288 0 C 192 0 96 0 48 0 L 0 0 Z" stroke-linecap="round"/>
</g>
<g transform="matrix(0.625 0 0 0.4861 499.9762 482.8042)" id="857">
<path style="stroke: none; stroke-width: 1; stroke-dasharray: none; stroke-linecap: butt; stroke-dashoffset: 0; stroke-linejoin: miter; stroke-miterlimit: 4; is-custom-font: none; font-file-url: none; fill: rgb(204,149,68); fill-rule: nonzero; opacity: 1;" vector-effect="non-scaling-stroke" transform=" translate(-720, -144)" d="M 0 288 L 60 272 C 120 256 240 224 360 218.7 C 480 213 600 235 720 213.3 C 840 192 960 128 1080 112 C 1200 96 1320 128 1380 144 L 1440 160 L 1440 0 L 1380 0 C 1320 0 1200 0 1080 0 C 960 0 840 0 720 0 C 600 0 480 0 360 0 C 240 0 120 0 60 0 L 0 0 Z" stroke-linecap="round"/>
</g>
</svg>