<svg xmlns="http://www.w3.org/2000/svg" viewBox="0 0 401.62 465.16"><defs><style>.cls-1,.cls-2,.cls-3{fill:none;}.cls-1,.cls-2,.cls-3,.cls-4,.cls-5,.cls-6{stroke:#fff;}.cls-1{stroke-width:16px;}.cls-2{stroke-width:13px;}.cls-3{stroke-width:11px;}.cls-4{font-size:210px;}.cls-4,.cls-5,.cls-6{fill:#fff;stroke-miterlimit:10;}.cls-4,.cls-5{font-family:Montserrat-ExtraBold, Montserrat;font-weight:800;}.cls-5{font-size:243.17px;}.cls-6{font-size:34.72px;font-family:Montserrat-Bold, Montserrat;font-weight:700;letter-spacing:0.47em;}</style></defs><g id="Layer_1" data-name="Layer 1"><path class="cls-1" d="M903.72,624.88a192.5,192.5,0,0,0,76.78-154c0-106.49-86.32-192.81-192.81-192.81S594.88,364.39,594.88,470.88c0,3.31.08,6.59.25,9.86" transform="translate(-586.88 -270.07)"/><line class="cls-2" x1="101.98" y1="35.22" x2="119.09" y2="63.31"/><line class="cls-2" x1="34.1" y1="103.88" x2="61.99" y2="120.28"/><line class="cls-2" x1="200.81" y1="8" x2="200.89" y2="41.04"/><line class="cls-2" x1="0.13" y1="206.89" x2="40.04" y2="206.89"/><line class="cls-2" x1="299.79" y1="35.31" x2="283.16" y2="63.45"/><line class="cls-2" x1="367.74" y1="104.25" x2="340.46" y2="120.82"/><line class="cls-2" x1="393.62" y1="202.06" x2="362.08" y2="202.47"/><line class="cls-2" x1="365.43" y1="299.6" x2="339.37" y2="284.43"/><line class="cls-2" x1="315.74" y1="354.54" x2="317.79" y2="328.97"/><line class="cls-2" x1="343.95" y1="362.32" x2="308.81" y2="358.91"/><circle class="cls-3" cx="199.71" cy="202.65" r="19.36"/><line class="cls-3" x1="199.71" y1="183.29" x2="199.71" y2="67.97"/><line class="cls-3" x1="219.08" y1="202.65" x2="296.48" y2="202.26"/></g><g id="Layer_2" data-name="Layer 2"><text class="cls-4" transform="translate(7.92 369.11)">2</text><text class="cls-5" transform="translate(128.85 401.68)">4</text><text class="cls-6" transform="translate(11.13 401.68)">HOURS</text></g></svg>