<svg id="Layer_1" data-name="Layer 1" xmlns="http://www.w3.org/2000/svg" viewBox="0 0 409.91 409.91"><defs><style>.cls-1,.cls-2,.cls-3,.cls-4{fill:none;}.cls-1,.cls-2,.cls-3,.cls-4,.cls-5{stroke:#fff;}.cls-1{stroke-width:17px;}.cls-2,.cls-4{stroke-linecap:round;}.cls-2{stroke-linejoin:round;}.cls-2,.cls-3,.cls-4{stroke-width:16px;}.cls-5{fill:#fff;stroke-miterlimit:10;}</style></defs><path class="cls-1" d="M841.2,416.66a.72.72,0,0,1,.34-1.16l17.59-6.82a4.4,4.4,0,0,0,1.55-1.15l13.44-17a.74.74,0,0,1,1.22,0L888,407.21a4.55,4.55,0,0,0,1.52,1.2l17.66,7.76a.84.84,0,0,1,.38,1.25l-9.93,15.93a4.49,4.49,0,0,0-.57,1.85L896.32,454a.75.75,0,0,1-1,.72l-20.35-6a3.26,3.26,0,0,0-1.88.1l-18.33,7.78a.63.63,0,0,1-.94-.61l-.33-21.66a3.69,3.69,0,0,0-.61-1.81Z" transform="translate(-747.37 -334.61)"/><path class="cls-1" d="M942.76,416.66a.72.72,0,0,1,.33-1.16l17.59-6.82a4.43,4.43,0,0,0,1.56-1.15l13.43-17a.75.75,0,0,1,1.23,0l12.67,16.71a4.45,4.45,0,0,0,1.52,1.2l17.65,7.76a.84.84,0,0,1,.39,1.25l-9.94,15.93a4.64,4.64,0,0,0-.57,1.85L997.87,454a.75.75,0,0,1-1,.72l-20.34-6a3.25,3.25,0,0,0-1.88.1l-18.34,7.78a.62.62,0,0,1-.93-.61L955,434.33a3.68,3.68,0,0,0-.6-1.81Z" transform="translate(-747.37 -334.61)"/><path class="cls-1" d="M1045,416.66a.72.72,0,0,1,.34-1.16l17.59-6.82a4.4,4.4,0,0,0,1.55-1.15l13.44-17a.74.74,0,0,1,1.22,0l12.67,16.71a4.55,4.55,0,0,0,1.52,1.2l17.66,7.76a.84.84,0,0,1,.38,1.25l-9.93,15.93a4.49,4.49,0,0,0-.57,1.85l-.75,18.79a.75.75,0,0,1-1,.72l-20.35-6a3.26,3.26,0,0,0-1.88.1l-18.33,7.78a.63.63,0,0,1-.94-.61l-.33-21.66a3.69,3.69,0,0,0-.61-1.81Z" transform="translate(-747.37 -334.61)"/><path class="cls-2" d="M836.76,507.48H807.63a10,10,0,0,1-10-10V352.61a10,10,0,0,1,10-10h331.65a10,10,0,0,1,10,10V497.48a10,10,0,0,1-10,10h-51.13c-5.5,0-13.09,3.27-16.87,7.26l-16.86,17.8a9.78,9.78,0,0,1-14,.24l-17.85-17.62c-3.92-3.87-11.62-7-17.12-7l-52.9.33" transform="translate(-747.37 -334.61)"/><path class="cls-2" d="M797.92,675.4v-98a11,11,0,0,0-11-11H766.37a11,11,0,0,0-11,11V725.52a11,11,0,0,0,11,11h57.18a11,11,0,0,0,11-11V577.43a11,11,0,0,0-11-11H797.92" transform="translate(-747.37 -334.61)"/><path class="cls-2" d="M965.11,694.52h32.45c6.6,0,14,5,16.52,11.12l.51,1.24c2.49,6.12,1,15.24-3.23,20.28l-.16.2c-4.26,5-13.15,9.16-19.75,9.16H880.65a72.44,72.44,0,0,1-23.1-4.58l-23-9.51" transform="translate(-747.37 -334.61)"/><path class="cls-2" d="M968.18,650.11h36.93c7.7,0,18.09,4.79,23.08,10.66l.76.89a17,17,0,0,1,0,21.31l-.76.89c-5,5.87-15.38,10.55-23.08,10.42l-36.93-.64" transform="translate(-747.37 -334.61)"/><path class="cls-2" d="M966.41,607.91h53.8c7.7,0,18.17,4.72,23.27,10.49l.37.41a15.74,15.74,0,0,1-.27,20.7c-5.24,5.61-15.83,10.26-23.53,10.31l-37.07.29" transform="translate(-747.37 -334.61)"/><path class="cls-2" d="M934,565.65h68.64c7.7,0,18.13,4.76,23.17,10.58l.57.66a15.62,15.62,0,0,1-.34,20.54c-5.22,5.48-15.8,10.09-23.5,10.24l-36.84.75" transform="translate(-747.37 -334.61)"/><path class="cls-3" d="M834.55,577.91l27-14.57c10.64-5.76,23-19.69,27.39-31l21.44-54.65" transform="translate(-747.37 -334.61)"/><path class="cls-4" d="M935.63,560.17l11.53-37.9c3.84-12.63-2.57-28-14.25-34.17l-22.58-11.93" transform="translate(-747.37 -334.61)"/><circle class="cls-5" cx="48.73" cy="366.27" r="7.73"/><circle class="cls-5" cx="115.74" cy="173.16" r="7.73"/></svg>